{
	"asset":{
		"generator":"Khronos glTF Blender I/O v4.3.47",
		"version":"2.0"
	},
	"scene":0,
	"scenes":[
		{
			"name":"Scene",
			"nodes":[
				0
			]
		}
	],
	"nodes":[
		{
			"mesh":0,
			"name":"Cube"
		}
	],
	"materials":[
		{
			"doubleSided":true,
			"name":"Material.001",
			"pbrMetallicRoughness":{
				"baseColorTexture":{
					"index":0
				},
				"metallicFactor":0,
				"roughnessFactor":0.5
			}
		}
	],
	"meshes":[
		{
			"name":"Cube.001",
			"primitives":[
				{
					"attributes":{
						"POSITION":0,
						"NORMAL":1,
						"TEXCOORD_0":2
					},
					"indices":3,
					"material":0
				}
			]
		}
	],
	"textures":[
		{
			"sampler":0,
			"source":0
		}
	],
	"images":[
		{
			"mimeType":"image/jpeg",
			"name":"303609094_474501781359779_847981114018848282_n",
			"uri":"303609094_474501781359779_847981114018848282_n.jpg"
		}
	],
	"accessors":[
		{
			"bufferView":0,
			"componentType":5126,
			"count":1398,
			"max":[
				0.9977282881736755,
				0.2500000298023224,
				0.4977281987667084
			],
			"min":[
				-0.9977282881736755,
				-0.2500000298023224,
				-0.4977281987667084
			],
			"type":"VEC3"
		},
		{
			"bufferView":1,
			"componentType":5126,
			"count":1398,
			"type":"VEC3"
		},
		{
			"bufferView":2,
			"componentType":5126,
			"count":1398,
			"type":"VEC2"
		},
		{
			"bufferView":3,
			"componentType":5123,
			"count":7248,
			"type":"SCALAR"
		}
	],
	"bufferViews":[
		{
			"buffer":0,
			"byteLength":16776,
			"byteOffset":0,
			"target":34962
		},
		{
			"buffer":0,
			"byteLength":16776,
			"byteOffset":16776,
			"target":34962
		},
		{
			"buffer":0,
			"byteLength":11184,
			"byteOffset":33552,
			"target":34962
		},
		{
			"buffer":0,
			"byteLength":14496,
			"byteOffset":44736,
			"target":34963
		}
	],
	"samplers":[
		{
			"magFilter":9729,
			"minFilter":9987
		}
	],
	"buffers":[
		{
			"byteLength":59232,
			"uri":"materials.bin"
		}
	]
}
